# xmcd
#
# Track frame offsets: 
#        150
#        15999
#        30927
#        58015
#        74604
#        97282
#        117966
#        136985
#        152663
#        175476
#        207004
#        220124
#
# Disc length: 3034 seconds
#
# Revision: 0
# Processed by: cddbd v1.5.2PL0 Copyright (c) Steve Scherf et al.
# Submitted via: ExactAudioCopy v0.95b4
#
DISCID=a50bd80c
DTITLE=Thys - Als we maar geloven
DYEAR=2006
DGENRE=Blues
TTITLE0=Vergeet me maar
TTITLE1=Stel nu dat je niet bestond
TTITLE2=Als we maar geloven
TTITLE3=In de speeltuin...
TTITLE4=Ze houdt van me
TTITLE5=Twee meisjes
TTITLE6=Ander and beter
TTITLE7=Sabine
TTITLE8=Heel eenvoudig zo
TTITLE9=Dit was het dan, Marianne
TTITLE10=Wat je stond te kijken
TTITLE11=Voor Elise
EXTD=
EXTT0=
EXTT1=
EXTT2=
EXTT3=
EXTT4=
EXTT5=
EXTT6=
EXTT7=
EXTT8=
EXTT9=
EXTT10=
EXTT11=
PLAYORDER=
